HIERARCHY
ROOT Hips
{
  OFFSET 56.9611 94.0927 16.7747
  CHANNELS 6 Xposition Yposition Zposition Zrotation Xrotation Yrotation
  JOINT spine
  {
    OFFSET 0 7.80058 0.448573
    CHANNELS 3 Zrotation Xrotation Yrotation
    JOINT spine1
    {
      OFFSET 0 10.1364 0
      CHANNELS 3 Zrotation Xrotation Yrotation
      JOINT spine2
      {
        OFFSET 0 9.71251 0
        CHANNELS 3 Zrotation Xrotation Yrotation
        JOINT Neck
        {
          OFFSET 0 24.9361 1.18887
          CHANNELS 3 Zrotation Xrotation Yrotation
          JOINT Head
          {
            OFFSET 0 7.53384 0
            CHANNELS 3 Zrotation Xrotation Yrotation
            End Site
            {
              OFFSET 0 18.2361 -6.01402
            }
          }
        }
        JOINT RightShoulder
        {
          OFFSET -4.08965 10.4888 -0.569457
          CHANNELS 3 Zrotation Xrotation Yrotation
          JOINT RightArm
          {
            OFFSET 0 13.757 0
            CHANNELS 3 Zrotation Xrotation Yrotation
            JOINT RightArmRoll
            {
              OFFSET 0 6.94478 0
              CHANNELS 3 Zrotation Xrotation Yrotation
              JOINT RightForeArm
              {
                OFFSET 0 20.2277 0
                CHANNELS 3 Zrotation Xrotation Yrotation
                JOINT RightForeArmRoll
                {
                  OFFSET 0 7.79312 0
                  CHANNELS 3 Zrotation Xrotation Yrotation
                  JOINT RightHand
                  {
                    OFFSET 0 15.6391 0
                    CHANNELS 3 Zrotation Xrotation Yrotation
                    End Site
                    {
                      OFFSET 0 0 0
                    }
                  }
                }
              }
            }
          }
        }
        JOINT LeftShoulder
        {
          OFFSET 4.08965 10.4888 -0.569457
          CHANNELS 3 Zrotation Xrotation Yrotation
          JOINT LeftArm
          {
            OFFSET 0 13.757 0
            CHANNELS 3 Zrotation Xrotation Yrotation
            JOINT LeftArmRoll
            {
              OFFSET 0 6.94478 0
              CHANNELS 3 Zrotation Xrotation Yrotation
              JOINT LeftForeArm
              {
                OFFSET 0 20.2277 0
                CHANNELS 3 Zrotation Xrotation Yrotation
                JOINT LeftForeArmRoll
                {
                  OFFSET 0 7.79312 0
                  CHANNELS 3 Zrotation Xrotation Yrotation
                  JOINT LeftHand
                  {
                    OFFSET 0 15.6391 0
                    CHANNELS 3 Zrotation Xrotation Yrotation
                    End Site
                    {
                      OFFSET 0 0 0
                    }
                  }
                }
              }
            }
          }
        }
      }
    }
  }
  JOINT RightUpLeg
  {
    OFFSET -6.91415 -1.26788 -1.06358
    CHANNELS 3 Zrotation Xrotation Yrotation
    JOINT RightUpLegRoll
    {
      OFFSET 0 18.3378 0
      CHANNELS 3 Zrotation Xrotation Yrotation
      JOINT RightLeg
      {
        OFFSET 0 -22.7085 0
        CHANNELS 3 Zrotation Xrotation Yrotation
        JOINT RightLegRoll
        {
          OFFSET 0 22.7828 0
          CHANNELS 3 Zrotation Xrotation Yrotation
          JOINT RightFoot
          {
            OFFSET 0 18.9629 0
            CHANNELS 3 Zrotation Xrotation Yrotation
            JOINT RightToeBase
            {
              OFFSET 0 15.852 0
              CHANNELS 3 Zrotation Xrotation Yrotation
              End Site
              {
                OFFSET 0.00671906 7.67701 -0.884893
              }
            }
          }
        }
      }
    }
  }
  JOINT LeftUpLeg
  {
    OFFSET 6.91415 -1.26788 -1.06358
    CHANNELS 3 Zrotation Xrotation Yrotation
    JOINT LeftUpLegRoll
    {
      OFFSET 0 18.3379 0
      CHANNELS 3 Zrotation Xrotation Yrotation
      JOINT LeftLeg
      {
        OFFSET 0 22.7084 0
        CHANNELS 3 Zrotation Xrotation Yrotation
        JOINT LeftLegRoll
        {
          OFFSET 0 22.9934 0
          CHANNELS 3 Zrotation Xrotation Yrotation
          JOINT LeftFoot
          {
            OFFSET 0 18.7522 0
            CHANNELS 3 Zrotation Xrotation Yrotation
            JOINT LeftToeBase
            {
              OFFSET 0 15.852 0
              CHANNELS 3 Zrotation Xrotation Yrotation
              End Site
              {
                OFFSET -0.030112 7.677 -0.884893
              }
            }
          }
        }
      }
    }
  }
}
MOTION
Frames: 11
Frame Time: 0.00208333
57.0216 94.0292 16.8603 -0.0743813 -2.9273 0.856047 0.0540422 -2.58857 0.0832334 0.108586 -1.16386 0.168071 0.106546 0.481216 0.166217 -1.42711 21.8232 -0.248603 1.80449 0.48493 -0.554914 43.3079 -10.2611 -6.38453 52.8396 23.0215 49.4358 4.77083e-15 1.11319e-14 -0 -3.93154 6.00171 -0.211297 -9.94667e-06 8.27656e-06 -2.99999 8.0301 -4.9514 0.697623 -38.0842 -12.7548 8.68196 -57.8157 20.3956 -40.6285 1.59028e-15 1.15295e-14 -9.54166e-15 6.64282 2.18442 0.181717 -4.08562e-06 -4.20591e-06 3 -8.03035 -4.95139 -0.697627 -179.335 2.05602 -1.44117 180 7.01532e-15 178.86 178.545 11.9584 179.622 6.41127e-07 1.71655e-06 0.352547 -21.8267 70.4353 21.8939 8.13649 25.2327 -3.48773 178.144 0.575981 8.58237 4.54188e-06 -4.6773e-06 -1.32772 -3.7024 -12.0833 -0.115007 2.93943e-07 -4.95731e-06 -0.313138 24.6553 71.5865 -23.3676 -8.13649 25.2327 3.48774 
57.0197 94.0245 16.8663 -0.0739889 -2.92628 0.857063 0.0540922 -2.58965 0.0830675 0.109456 -1.16509 0.168797 0.107414 0.479982 0.166937 -1.43731 21.827 -0.245574 1.81024 0.482706 -0.554666 43.2953 -10.2632 -6.38634 52.839 23.0197 49.4356 -1.59028e-15 6.36111e-15 3.18055e-15 -3.9311 6.0033 -0.211224 -9.94667e-06 8.27656e-06 -2.99999 8.0301 -4.9514 0.697623 -38.0837 -12.7554 8.6825 -57.8172 20.3946 -40.6238 7.95139e-16 -8.74653e-15 -2.22639e-14 6.63892 2.18594 0.18207 -4.08562e-06 -4.20591e-06 3 -8.03035 -4.95139 -0.697627 -179.338 2.05988 -1.43688 180 7.01532e-15 178.86 178.539 11.961 179.623 6.41127e-07 1.71655e-06 0.352586 -21.8334 70.4369 21.8971 8.13649 25.2327 -3.48773 178.145 0.57387 8.58195 4.54188e-06 -4.6773e-06 -1.32718 -3.70287 -12.0783 -0.115033 2.93943e-07 -4.95731e-06 -0.312928 24.6513 71.5843 -23.3641 -8.13649 25.2327 3.48774 
57.0166 94.0377 16.8773 -0.0735723 -2.92487 0.858307 0.0540322 -2.59072 0.0828829 0.110006 -1.16644 0.16934 0.107965 0.478631 0.16748 -1.44439 21.8301 -0.243377 1.81406 0.481267 -0.554405 43.2855 -10.265 -6.3878 52.8356 23.0177 49.4357 -6.36111e-15 3.97569e-15 6.36111e-15 -3.93025 6.00434 -0.211231 -9.94667e-06 8.27656e-06 -2.99999 8.0301 -4.9514 0.697623 -38.0817 -12.756 8.68321 -57.8188 20.3935 -40.62 7.95139e-15 8.34896e-15 -2.54444e-14 6.63585 2.1871 0.182315 -4.08562e-06 -4.20591e-06 3 -8.03035 -4.95139 -0.697627 -179.34 2.06333 -1.43389 180 7.01532e-15 178.86 178.536 11.963 179.624 6.41127e-07 1.71655e-06 0.352625 -21.8383 70.438 21.8995 8.13649 25.2327 -3.48773 178.145 0.572925 8.58169 4.54188e-06 -4.6773e-06 -1.32674 -3.7032 -12.0745 -0.115048 2.93943e-07 -4.95731e-06 -0.312755 24.648 71.5827 -23.3612 -8.13649 25.2327 3.48774 
57.0202 94.0333 16.8755 -0.073136 -2.92303 0.859829 0.0538508 -2.59176 0.0826785 0.110191 -1.16791 0.16967 0.108153 0.477156 0.167818 -1.44783 21.8323 -0.242151 1.81563 0.480749 -0.554131 43.279 -10.2662 -6.38887 52.8289 23.0155 49.4359 1.59028e-15 -2.14687e-14 1.27222e-14 -3.92894 6.00474 -0.21133 -9.94667e-06 8.27656e-06 -2.99999 8.0301 -4.9514 0.697623 -38.0782 -12.7568 8.68411 -57.8205 20.3924 -40.617 -7.95139e-16 -3.18055e-15 9.54166e-15 6.63377 2.18784 0.182433 -4.08562e-06 -4.20591e-06 3 -8.03035 -4.95139 -0.697627 -179.34 2.06638 -1.43267 180 7.01532e-15 178.86 178.534 11.9642 179.625 6.41127e-07 1.71655e-06 0.35267 -21.8411 70.4384 21.9007 8.13649 25.2327 -3.48773 178.145 0.573408 8.58165 4.54188e-06 -4.6773e-06 -1.32642 -3.70335 -12.0722 -0.115051 2.93943e-07 -4.95731e-06 -0.312633 24.6454 71.5815 -23.3592 -8.13649 25.2327 3.48774 
57.0148 94.0335 16.8782 -0.0726845 -2.92072 0.861676 0.0535366 -2.59276 0.082453 0.109965 -1.16952 0.169758 0.107931 0.475548 0.167922 -1.44712 21.8336 -0.242037 1.81462 0.481284 -0.553846 43.2761 -10.2669 -6.38949 52.8185 23.0129 49.4363 -6.36111e-15 1.27222e-14 -3.18055e-15 -3.92708 6.00442 -0.211534 -9.94667e-06 8.27656e-06 -2.99999 8.0301 -4.9514 0.697623 -38.0728 -12.7577 8.68522 -57.8225 20.3914 -40.6153 -7.95139e-16 7.95139e-16 -9.54166e-15 6.63284 2.18807 0.182406 -4.08562e-06 -4.20591e-06 3 -8.03035 -4.95139 -0.697627 -179.34 2.069 -1.43367 180 7.01532e-15 178.86 178.535 11.9648 179.625 6.41127e-07 1.71655e-06 0.35273 -21.841 70.4381 21.9005 8.13649 25.2327 -3.48773 178.146 0.57558 8.58184 4.54188e-06 -4.6773e-06 -1.32623 -3.7033 -12.0719 -0.115043 2.93943e-07 -4.95731e-06 -0.312577 24.644 71.5812 -23.3583 -8.13649 25.2327 3.48774 
57.0162 94.0349 16.8797 -0.0722294 -2.91778 0.863812 0.0530894 -2.59377 0.0821971 0.109349 -1.17133 0.169615 0.107323 0.473735 0.167805 -1.44265 21.8337 -0.242835 1.81134 0.483004 -0.553459 43.2768 -10.267 -6.38964 52.8044 23.0102 49.4371 -6.36111e-15 5.56597e-15 1.27222e-14 -3.92479 6.00339 -0.211832 -9.94667e-06 8.27656e-06 -2.99999 8.0301 -4.9514 0.697623 -38.0659 -12.7588 8.68652 -57.8241 20.3903 -40.6147 -4.77083e-15 -7.15625e-15 -6.36111e-15 6.6329 2.18778 0.182244 -4.08562e-06 -4.20591e-06 3 -8.03035 -4.95139 -0.697627 -179.338 2.07083 -1.43632 180 7.01532e-15 178.86 178.537 11.9639 179.624 6.41127e-07 1.71655e-06 0.352796 -21.8387 70.437 21.8991 8.13649 25.2327 -3.48773 178.146 0.579402 8.58223 4.54188e-06 -4.6773e-06 -1.32618 -3.70306 -12.073 -0.115016 2.93943e-07 -4.95731e-06 -0.312565 24.6432 71.5813 -23.3583 -8.13649 25.2327 3.48774 
57.0169 94.0357 16.8659 -0.0717743 -2.91416 0.866152 0.0525218 -2.59482 0.0819054 0.108414 -1.1734 0.169283 0.106399 0.471671 0.167508 -1.43529 21.833 -0.244239 1.80638 0.485852 -0.552896 43.2803 -10.2666 -6.38938 52.7874 23.0075 49.4383 -3.18055e-15 3.18055e-15 1.27222e-14 -3.92224 6.00174 -0.212201 -9.94667e-06 8.27656e-06 -2.99999 8.0301 -4.9514 0.697623 -38.058 -12.7599 8.68799 -57.8252 20.3888 -40.615 -1.59028e-15 3.57812e-15 -1.59028e-14 6.63365 2.18705 0.181976 -4.08562e-06 -4.20591e-06 3 -8.03035 -4.95139 -0.697627 -179.336 2.07162 -1.43965 180 7.01532e-15 178.86 178.54 11.9608 179.623 6.41127e-07 1.71655e-06 0.352852 -21.835 70.4352 21.8965 8.13649 25.2327 -3.48773 178.146 0.584539 8.58278 4.54188e-06 -4.6773e-06 -1.32622 -3.70266 -12.0748 -0.114964 2.93943e-07 -4.95731e-06 -0.312563 24.6424 71.5815 -23.3587 -8.13649 25.2327 3.48774 
57.0133 94.0356 16.8686 -0.0713114 -2.90993 0.868675 0.0518423 -2.59589 0.0815826 0.107185 -1.17568 0.168779 0.105183 0.46939 0.167048 -1.42528 21.8314 -0.246227 1.79984 0.489676 -0.552195 43.2864 -10.2658 -6.38875 52.7677 23.0048 49.4399 -3.18055e-15 7.15625e-15 6.36111e-15 -3.91942 5.99952 -0.212637 -9.94667e-06 8.27656e-06 -2.99999 8.0301 -4.9514 0.697623 -38.0492 -12.7612 8.68962 -57.8259 20.387 -40.6162 -7.95139e-16 -1.19271e-15 -1.27222e-14 6.63504 2.18594 0.18161 -4.08562e-06 -4.20591e-06 3 -8.03035 -4.95139 -0.697627 -179.334 2.07151 -1.44357 180 7.01532e-15 178.86 178.544 11.956 179.623 6.41127e-07 1.71655e-06 0.352895 -21.83 70.4328 21.8931 8.13649 25.2327 -3.48773 178.146 0.590817 8.58345 4.54188e-06 -4.6773e-06 -1.32635 -3.70212 -12.0772 -0.114889 2.93943e-07 -4.95731e-06 -0.31257 24.6415 71.5819 -23.3594 -8.13649 25.2327 3.48774 
57.0082 94.0291 16.8713 -0.0708328 -2.9052 0.871361 0.0510593 -2.59699 0.0812333 0.105688 -1.17814 0.16812 0.103701 0.466927 0.16644 -1.41282 21.829 -0.248774 1.79184 0.494326 -0.551391 43.2947 -10.2646 -6.38779 52.7457 23.0021 49.4418 3.0456e-30 -1.82882e-14 9.54166e-15 -3.91635 5.9968 -0.213134 -9.94667e-06 8.27656e-06 -2.99999 8.0301 -4.9514 0.697623 -38.0394 -12.7626 8.69142 -57.8263 20.3851 -40.6182 -3.97569e-15 0 -3.18055e-15 6.63703 2.18451 0.181156 -4.08562e-06 -4.20591e-06 3 -8.03035 -4.95139 -0.697627 -179.332 2.07067 -1.44797 180 7.01532e-15 178.86 178.549 11.9496 179.622 6.41127e-07 1.71655e-06 0.352923 -21.8241 70.4299 21.8888 8.13649 25.2327 -3.48773 178.146 0.59806 8.58425 4.54188e-06 -4.6773e-06 -1.32655 -3.70146 -12.08 -0.114793 2.93943e-07 -4.95731e-06 -0.312583 24.6406 71.5824 -23.3604 -8.13649 25.2327 3.48774 
57.005 94.0337 16.8684 -0.0703308 -2.90007 0.87419 0.0501812 -2.5981 0.080862 0.103947 -1.18075 0.167323 0.101978 0.464318 0.165701 -1.39814 21.8261 -0.251859 1.78252 0.499652 -0.55052 43.3051 -10.263 -6.38653 52.7215 22.9993 49.4439 1.32417e-30 -7.95139e-15 9.54166e-15 -3.91303 5.99362 -0.213688 -9.94667e-06 8.27656e-06 -2.99999 8.0301 -4.9514 0.697623 -38.0287 -12.7642 8.69337 -57.8266 20.3831 -40.6207 2.38542e-15 1.15295e-14 -0 6.63955 2.18282 0.180623 -4.08562e-06 -4.20591e-06 3 -8.03035 -4.95139 -0.697627 -179.329 2.06925 -1.45274 180 7.01532e-15 178.86 178.553 11.942 179.62 6.41127e-07 1.71655e-06 0.352935 -21.8173 70.4266 21.8839 8.13649 25.2327 -3.48773 178.146 0.606091 8.58516 4.54188e-06 -4.6773e-06 -1.3268 -3.7007 -12.0833 -0.11468 2.93943e-07 -4.95731e-06 -0.312601 24.6397 71.583 -23.3615 -8.13649 25.2327 3.48774 
57.0093 94.0347 16.8876 -0.0697975 -2.89463 0.87714 0.0492166 -2.59922 0.0804734 0.101987 -1.18347 0.166406 0.100037 0.461597 0.164846 -1.38146 21.8228 -0.255458 1.77197 0.505503 -0.549618 43.3173 -10.2611 -6.38503 52.6954 22.9966 49.4461 -4.77083e-15 -2.3059e-14 2.8625e-14 -3.90948 5.99005 -0.214294 -9.94667e-06 8.27656e-06 -2.99999 8.0301 -4.9514 0.697623 -38.017 -12.7658 8.69546 -57.827 20.3809 -40.6238 7.15625e-15 5.96354e-15 -1.59028e-14 6.64255 2.18094 0.180022 -4.08562e-06 -4.20591e-06 3 -8.03035 -4.95139 -0.697627 -179.326 2.06741 -1.45779 180 7.01532e-15 178.86 178.558 11.9335 179.619 6.41127e-07 1.71655e-06 0.352927 -21.81 70.4231 21.8786 8.13649 25.2327 -3.48773 178.147 0.614736 8.58616 4.54188e-06 -4.6773e-06 -1.32709 -3.69984 -12.087 -0.114553 2.93943e-07 -4.95731e-06 -0.312621 24.6387 71.5836 -23.3628 -8.13649 25.2327 3.48774 
